<svg xmlns="http://www.w3.org/2000/svg" xmlns:xlink="http://www.w3.org/1999/xlink" width="160" height="68"><defs><style>.a{fill:#1a99f2}.e{fill:#939ca7}.f{fill:#059ee4}.l{fill:#0aa2e8}.s{fill:#004077}.t{fill:#001d45}.u{fill:#fff}.v{fill:#4d7aa0}.w{fill:#005fa1}.ac{fill:#33bbf9}.ad{fill:#11a2ea}.ae{fill:none}</style><linearGradient id="a" x1="22.755" y1="17.875" x2="22.755" y2="51.625" gradientTransform="matrix(1 0 0 -1 0 60)" gradientUnits="userSpaceOnUse"><stop offset="0" stop-color="#33bbf9"/><stop offset=".17" stop-color="#1395db"/><stop offset=".491" stop-color="#33bbf9"/></linearGradient><radialGradient id="b" cx="22.172" cy="39.862" r="14.456" gradientTransform="translate(0 -20)" gradientUnits="userSpaceOnUse"><stop offset="0" stop-color="#78e1ff"/><stop offset="1" stop-color="#33bbf9"/></radialGradient><linearGradient id="c" x1="22.9" y1="31.12" x2="22.9" y2="15.641" gradientTransform="matrix(1 0 0 -1 0 60)" gradientUnits="userSpaceOnUse"><stop offset="0" stop-color="#33c5f9"/><stop offset=".092" stop-color="#33bbf9"/><stop offset=".24" stop-color="#28aeef"/><stop offset=".484" stop-color="#1395db"/><stop offset=".724" stop-color="#33bbf9"/></linearGradient><radialGradient id="d" cx="22.031" cy="37.556" r="14.666" gradientTransform="matrix(1.0832 0 0 -.9893 -1.3 59.591)" gradientUnits="userSpaceOnUse"><stop offset="0" stop-color="#78e1ff"/><stop offset="1" stop-color="#33bbf9" stop-opacity="0"/></radialGradient><radialGradient id="e" cx="8.422" cy="34.437" r="8.746" gradientTransform="matrix(.0039 -1 -1.4487 -.0056 73.28 49.137)" gradientUnits="userSpaceOnUse"><stop offset="0" stop-color="#008bdb"/><stop offset=".311" stop-color="#0892e0" stop-opacity=".849"/><stop offset=".57" stop-color="#1ca5eb" stop-opacity=".418"/><stop offset=".822" stop-color="#33bbf9" stop-opacity="0"/></radialGradient><linearGradient id="f" x1="16.3" y1="37.084" x2="16.3" y2="50.884" gradientTransform="translate(0 -20)" gradientUnits="userSpaceOnUse"><stop offset="0" stop-color="#0ca7ee"/><stop offset=".246" stop-color="#1aabee"/><stop offset=".698" stop-color="#2fb1ed"/><stop offset="1" stop-color="#36b3ed"/></linearGradient><linearGradient id="g" x1="16.5" y1="37.7" x2="16.5" y2="50.594" gradientTransform="translate(0 -20)" gradientUnits="userSpaceOnUse"><stop offset="0" stop-color="#fff"/><stop offset=".008" stop-color="#fff"/><stop offset="1" stop-color="#f3f7f9"/></linearGradient><linearGradient id="h" x1="804.288" y1="37.084" x2="804.288" y2="50.939" gradientTransform="matrix(-1 0 0 1 833.588 -20)" gradientUnits="userSpaceOnUse"><stop offset="0" stop-color="#0ca7ee"/><stop offset=".338" stop-color="#21adee"/><stop offset=".709" stop-color="#30b1ed"/><stop offset="1" stop-color="#36b3ed"/></linearGradient><linearGradient id="i" x1="29.1" y1="37.766" x2="29.1" y2="50.66" xlink:href="#g"/></defs><path class="a" d="M111.7 16.5l-.5 2.4-2-.2c-2.5 0-3.9 1.1-4.2 3-.3 1.7.4 2.9 2.9 2.9a13 13 0 0 0 2.6-.3l-.3 2.4a10.3 10.3 0 0 1-3.5.3c-2.7-.2-4.9-1.8-4.4-5.3a6 6 0 0 1 2.3-4 6.9 6.9 0 0 1 4.6-1.5l2.5.3"/><path class="a" d="M116.7 16.3a4.7 4.7 0 0 1 3.7 1.4 4.8 4.8 0 0 1 .7 4 6.8 6.8 0 0 1-2.1 4 5.9 5.9 0 0 1-4.1 1.4 4.3 4.3 0 0 1-3.6-1.4 4.8 4.8 0 0 1-.7-4 6.8 6.8 0 0 1 2.1-4 5.7 5.7 0 0 1 4-1.4m-.3 2.5c-1.7 0-2.7 1.7-3 3-.3 1.4.1 3 1.7 3a3.5 3.5 0 0 0 3.1-3c.4-1.3.1-3-1.8-3M129.1 17.6a2.3 2.3 0 0 1 2.2-1.1c1.7 0 2.6 1.6 2.4 3.4l-1.1 7h-3l1.1-6.3c.1-.8 0-1.3-.5-1.3-.6 0-.7.9-.8 1.7l-1.1 5.9h-3l1-5.8c.1-.8.3-1.7-.5-1.7-.6 0-.8 1.1-.9 1.9l-1 5.6h-3.2l1.9-10.3h2.8l-.2 1a2.3 2.3 0 0 1 2-1.1 2.1 2.1 0 0 1 1.9 1.1M101.9 25.6a1.5 1.5 0 1 1-1.6-1.4h.1a1.4 1.4 0 0 1 1.5 1.3v.1"/><path d="M54 23.9h6.3l-.7 3.1h-13l.9-3.9c1.3-.6 9.1-3.2 9.8-5.7.3-1.1-.6-1.9-2.9-1.9a20.5 20.5 0 0 0-6.2 1.2l.7-3.5A17.2 17.2 0 0 1 55 12c5.6 0 6.7 3.6 6.1 5.8-.7 3.4-5.3 5.3-7.1 6.1" fill="#da2128"/><path d="M71.8 19.9a2.8 2.8 0 0 1 1.3 3.4c-.5 2-2.5 3.8-7.6 3.8h-5.1L61 24h5.1c1.6 0 2.8-.5 2.9-1.3.2-.8-.5-1.4-2-1.4h-4.6l.6-3.1h4.6c1.2 0 2.6-.5 2.9-1.2.2-.5 0-1.3-1.6-1.3h-6.4l.6-3.3h6.3c3.3 0 5.6 1.7 5 4.4a4.8 4.8 0 0 1-2.6 3.1" fill="#f4bc2f"/><path class="a" d="M89.9 12.5h10.6l-.7 3.7H93l-.5 1.8h1.1c3.9 0 5.6 2.2 5.1 4.7s-2.2 4.5-6.9 4.5h-5l.6-3.2H92c1 0 2.6-.1 2.8-1.5.2-1.2-1.2-1.4-2.5-1.4H88z"/><path fill="#6dbf67" d="M84.8 21.5l2.2-9.2h-3.9l-2.4 9.2h-2.6l2.4-9.2h-4l-3.1 12.5H80l-.5 2.4h4.1l.5-2.4h2.3l.8-3.3h-2.4z"/><path class="a" d="M72.5 47.3h-1.2l.3-1.6v-.1h-2.1l-.3-1.6-.7 1.8H65l-.4-2.6-1.2 2.5h-2.1l-.3 1.6h-2.8l2.4-13.6a2.7 2.7 0 0 1 2.9-2.4h11.1c1.6 0 2.4.8 2.1 2.4l-2.5 13.6h-1.7m-9.4-11.8l-1.7 9.2 2.5-4.7zm2.4 1.5l1.3-2.8H70l.5 3.1 1.5-3.1h1.8a3.2 3.2 0 0 0 .1-.7H63.5l-.1.7H65zm2.7-1.3l-1.9 4.1.8 4.4 1.8-4.2zm5.3-.2l-2.5 5 .8 4.3zM83 45l-.4 2.2h-5.7l.4-2.2h1.3l1.5-8.5h-1.3l.4-2.4h1.3l.5-3h2.8l-.5 3h1.4l-.4 2.4h-1.4L81.4 45zm4.9.1l2.5-14h2.8l-.5 3h3.1l-.4 2.2h-3.1l-1.6 8.8h3.2l-.4 2.2H83.4v-.1L86 32.6h2.8L86.6 45zM108.4 40c.1-.5-.3-.7-1.2-.7h-7.8c-1.1 0-1.5-.6-1.3-1.7l.8-4.5a2.5 2.5 0 0 1 2.7-2.1h11.1c1.3 0 1.8.7 1.5 2.2l-.6 3.1h-12.5l-.1.4c-.1.3.1.4.3.4h12.5l-.4 2.2h-2.1l-.2.8h2.3l-.4 2.1h-2.3l-.6 3.4a2.4 2.4 0 0 1-.6 1.1 1.8 1.8 0 0 1-1.3.6h-3.1l.4-2.1h1.3a.8.8 0 0 0 .8-.7l.2-1c.2-.9-.2-1.3-1.1-1.3h-9.9l.4-2.1zm-9.9 3l1.6 4h3l-1.4-3.5a1 1 0 0 0-.8-.5zm11.9-9.8h-8.7l-.2 1h9.7v-.1c.2-.6-.1-.9-.8-.9M120.6 47.4h-1.2l1-5.2c.2-.9-.1-1.3-.8-1.3h-1l-1.2 6.5H115l1.2-6.5h-.6l.5-2.5h.6l.6-3-.7.4.5-2.6a9.2 9.2 0 0 0 2.2-2.2h2.5l-.4.8h1.2c1.4 0 2 .7 1.7 2.1L122 46a1.4 1.4 0 0 1-1.3 1.4m-2.2-3.4c.1.2.2.4.4.4s.3-.1.5-.4a1.9 1.9 0 0 0 .4-.9 1 1 0 0 0-.1-.8c-.1-.2-.2-.3-.4-.3a.6.6 0 0 0-.5.3 2 2 0 0 0-.4.8 2.2 2.2 0 0 0 .1.9m3.2-8.7c.2-.8-.1-1.2-.7-1.2h-1l-.8 4.3h2zm-1.8 2c.1.2.2.4.4.4a.5.5 0 0 0 .5-.4 1.9 1.9 0 0 0 .4-.9 2.1 2.1 0 0 0 0-.8c-.1-.2-.2-.3-.4-.3a.6.6 0 0 0-.5.3 1.1 1.1 0 0 0-.3.8 1 1 0 0 0-.1.9m10.7 7.4c-.1.3.1.4.3.4h.3l-.4 2.3h-1.6c-1.2 0-1.7-.6-1.5-1.7L129 39c.3-1-.1-1.5-.9-1.5h-.9l-2 9.9h-2.6l2-9.8c.3-1.5 1.1-2.3 2.4-2.3h3.4q2 0 1.5 2.1zm-5.4-12.6h2.8l.2-.9h2.7l-.2.9h3l-.4 2.3h-8.5z"/><path class="e" d="M11.9 61.3h-1.2L9.9 59H6.4l-.8 2.3H4.5L7.6 53h1.1zm-2.3-3.2l-1.3-3.5a3.5 3.5 0 0 1-.1-.6l-.1.6-1.2 3.5zM15 52.7h3.2v8.7c0 .8-.3 1.1-1 1.1h-1.1l-.1-.8 1 .1c.3 0 .4-.2.4-.5v-2.4h-1.6a6.3 6.3 0 0 1-1 3.9 4.3 4.3 0 0 0-.7-.6 5.5 5.5 0 0 0 .8-3.4v-6.1zm2.4.8h-1.6v2h1.6zm-1.6 4.7h1.6v-2h-1.6zm2.8-.3v-.8h5.3v.8a9.5 9.5 0 0 1-1.7 2.7 8.5 8.5 0 0 0 2.7 1.2 9.2 9.2 0 0 0-.5.8 10.5 10.5 0 0 1-2.8-1.4 9.2 9.2 0 0 1-2.7 1.6 6.8 6.8 0 0 0-.5-.7 12.6 12.6 0 0 0 2.6-1.4 6.3 6.3 0 0 1-1.6-2.7zm5.2-2.1h1.1l-.2.8h-1.2c-.7 0-1.1-.4-1.1-1.2v-1.9h-2v.6a3.1 3.1 0 0 1-1.5 2.8 4.3 4.3 0 0 1-.6-.7 2.3 2.3 0 0 0 1.3-2.2v-1.4h3.6v2.6c.1.5.3.6.6.6zm-.8 2.1h-2.8a6.4 6.4 0 0 0 1.4 2.2 6.4 6.4 0 0 0 1.4-2.2zM27.3 61.3h4.2v-8.9h1v3.2h4.4v.9h-4.4v4.8h5.3v.9H27.3zM42.1 61.7h-.8v-5.6h3.8v-1.5h-4.7v-.8h5l-.8-1.4.8-.4a10 10 0 0 1 .8 1.4l-.7.4h5.2v.8h-4.8v1.5h3.9v4c0 .9-.4 1.4-1.3 1.4H47a5 5 0 0 0-.2-.9l1.4.1c.5 0 .7-.2.7-.7v-3h-3.1v5.9h-.9V57h-3v4.7zM53.1 57.3a12.3 12.3 0 0 0 3.6-4.6l.8.4a14.4 14.4 0 0 1-3.7 4.9 2.3 2.3 0 0 0-.7-.7zm7 1.3l2.6 3.7-.8.5-.6-1-5.8.3a4.4 4.4 0 0 0-1 .2l-.5-.9a2.4 2.4 0 0 0 .9-.6 27.4 27.4 0 0 0 2.7-4.3l.9.4a45.5 45.5 0 0 1-2.8 4.3l5-.2-1.3-2zm-.9-5.8l.8-.3a8 8 0 0 0 3.9 4.4l-.7.8a9.5 9.5 0 0 1-4-4.9zM66.3 54.9h8.2v.8h-8.2zm.6-1.4v-.8h9.3v8.4c0 1-.5 1.5-1.4 1.5h-2.1a3.7 3.7 0 0 0-.2-.9l2.1.1c.5 0 .7-.3.7-.9v-7.4zm.4 3.4H73v3.8h-4.8v.8h-.8zm4.8 3.1v-2.3h-3.9V60zM79.2 53.9h1.9l-.7-1.5.7-.3a10.2 10.2 0 0 1 .8 1.5l-.7.3H83v.7h-2v1.6h1.9l-.2 4.8c-.1.9-.4 1.4-1.1 1.4h-1.1a3 3 0 0 0-.2-.8l.9.1c.4 0 .6-.2.7-.7l.2-4H81c0 2.8-.5 4.7-1.4 5.7a2.7 2.7 0 0 0-.5-.6c.7-.8 1-2.3 1.1-4.3l.1-3.1h-1zm6.1 6.7l.5.6a14.3 14.3 0 0 1-2.4 1.6 3 3 0 0 0-.5-.7 8 8 0 0 0 2.4-1.5zm-2.1-.7h1.1V56h-1.1v-.7h1.1v-.8h.8v.8h2.7v-.9h.8v.9h1v.7h-1v3.9h1.2v.7h-6.6zm0-5.4a10 10 0 0 0 1.3-2.3l.8.2-.4.9h4.9v.7h-5.3a10.5 10.5 0 0 1-.7 1.1zm1.9 2.3h2.7V56h-2.7zm0 1.6h2.7v-.8h-2.7zm0 1.5h2.7V59h-2.7zm1.9 1.3l.5-.6 2.2 1.5-.5.6-2.2-1.5zM92.2 53.1h10.4v.9h-5.2v2.3l.5-.7 4.1 2.6-.6.9a27.7 27.7 0 0 0-4-2.7v6.3h-1V54h-4.2zM106.8 55.1l.6-.3 1.3 2.1.9-2.2.7.3a16.9 16.9 0 0 1-1.2 2.7l1.2 2.2-.7.4-.9-1.7a17.6 17.6 0 0 1-1.4 2.3l-.6-.4v2.2h-.8v-9.8h9.2v8.6a1 1 0 0 1-1.2 1.2h-1.6a3 3 0 0 0-.2-.8l1.5.1c.5 0 .7-.2.7-.6v-7.6h-7.5v6.8a19.1 19.1 0 0 0 1.6-2.7l-1.6-2.8zm3.5.5l.6-.4L112 57a12.2 12.2 0 0 0 1-2.4l.7.3a25.5 25.5 0 0 1-1.3 2.9l1.4 2.5-.7.4-1.1-2.1-1.4 2.3-.7-.4a26.3 26.3 0 0 0 1.6-2.6 12.7 12.7 0 0 0-1.2-2.3zM118.1 60.8l2.3-.4 1.1-4.6.9.2-1.1 4.3 1.3-.3a2 2 0 0 0 .1.8l-4.3.9zm.1-6.3h4.4v.8h-4.4zm.4 1.6l.7-.2.9 3.5-.8.2-.8-3.5zm.8-3.7l.8-.3a15 15 0 0 1 .9 1.8l-.8.4-.9-1.9zm3.5 5.2h2v-5.4h.9v2.2h3v.8h-3v2.4h2.4v5.1h-.8v-.6h-3.7v.6h-.8zm4.4.8h-3.7v3h3.7z"/><path class="f" d="M12.1 36.6a2 2 0 0 0-1.7.2c-1.1.5-2.1 1.5-3 1.2a2.2 2.2 0 0 1-1.6-1.3c-.3-.6-.6-1-.9-.5a3.9 3.9 0 0 0 .2 3.3 4 4 0 0 0 2.8 1.8l4-2.5c.1 0 1.6-1.7.2-2.2z"/><path d="M11.5 39.2a2 2 0 0 0 .6-.4s1.6-1.8.2-2.2a3.8 3.8 0 0 0-2.4 1.3 4.2 4.2 0 0 0-.5.7c-.7.9-1.5 1.7-2.6 1.5a.4.4 0 0 1-.3-.1 2.7 2.7 0 0 1-1.7-2.9 3.9 3.9 0 0 0 .5 2.4 4 4 0 0 0 2.8 1.8l1.3-.8 1-.6a4.1 4.1 0 0 1 1.1-.7z" fill="#0693dc"/><path class="f" d="M33.5 36.6a2 2 0 0 1 1.7.2c1.1.5 2 1.4 3 1.3a1.7 1.7 0 0 0 1.5-1.3c.2-.7.6-1 .9-.6.5.6.4 2.3-.2 3.3a4 4 0 0 1-2.8 1.8l-4-2.5s-1.5-1.7-.1-2.2z"/><path d="M34.2 39.1a2 2 0 0 1-.6-.4s-1.6-1.8-.2-2.3a3.8 3.8 0 0 1 2.4 1.3l.5.7c.7.9 1.5 1.7 2.6 1.5a.4.4 0 0 0 .3-.1 2.7 2.7 0 0 0 1.7-2.9 4.3 4.3 0 0 1-.5 2.5 4 4 0 0 1-2.8 1.8l-1.3-.8-1-.6a4.1 4.1 0 0 1-1.1-.7z" fill="#0791da"/><path d="M37.1 30.2a18.4 18.4 0 0 0 2.1-8.1c0-9.2-7.3-14.6-16.4-14.6C13.7 7.4 6.4 12.8 6.4 22a18 18 0 0 0 2.1 8.1l3.5 6.4c.2.3 1 1.8-.8 2.2-1.9.5-3.3 2-4.3 2.9s-3.2 1.6-4.7.6-1.7-.8-1.9-.6c-.3.4 0 2.7 2.4 4.2A4.7 4.7 0 0 0 8 46a4.5 4.5 0 0 1 1.8-.4 4.2 4.2 0 0 0 3.7 3.1 5.5 5.5 0 0 0 5.1-2.3 16.7 16.7 0 0 0 2-.7 3.6 3.6 0 0 1 3.3-.4l2.4 1a3.6 3.6 0 0 0 3.4 2.4 5.4 5.4 0 0 0 5.2-2.8 2.6 2.6 0 0 1 2.3 0 6 6 0 0 0 4.8.6 5.6 5.6 0 0 0 3.3-4.1c.1-1.4-1.2-.4-1.8-.1a4.3 4.3 0 0 1-3.3.3 7.4 7.4 0 0 1-2.2-1.5 12.1 12.1 0 0 0-3.2-2.1c-1.5-.4-1.9-1.1-1.1-2.5.7-1.3 2.2-3.8 3.4-6.3z" fill="url(#a)"/><path d="M12.1 36.4c.3.7.7 1.8-.8 2.3a5.2 5.2 0 0 0-2 1 8.2 8.2 0 0 0-1.8 1.6 3.5 3.5 0 0 0 .9.7 27 27 0 0 0 6.2 2.9 16.2 16.2 0 0 0 2.2 0 8.8 8.8 0 0 0 1.6-.2l2.6-.3a13.4 13.4 0 0 1 2-.1 12.1 12.1 0 0 1 1.9.1l3.1.3a12.8 12.8 0 0 0 1.9.1 8 8 0 0 0 1.6-.1c.3 0 3.9-2 5.8-3a2.2 2.2 0 0 0 .5-.3l.5-.3-1.8-1.6c-1.4-1-1.9-.7-2.6-1.1-.8-.5-.3-1.7-.1-2l.2-.4.2-.4a.3.3 0 0 1 .1-.2v-.1l.2-.4.6-1.1 1.3-2.5.7-1.3.6-1.4.6-1.5a8.3 8.3 0 0 0 .4-1.5 16.5 16.5 0 0 0 .4-3.1V21a8.8 8.8 0 0 0-.2-1.6 8.6 8.6 0 0 0-.6-2.3 6.6 6.6 0 0 0-.9-1.9 10.4 10.4 0 0 0-1.7-2.4 6 6 0 0 0-.8-.8 5.7 5.7 0 0 0-.8-.7l-.6-.4-.6-.4-.2-.1a.1.1 0 0 1-.1-.1 5.6 5.6 0 0 1-.8-.5 8.9 8.9 0 0 0-1.7-.8 14.6 14.6 0 0 0-1.9-.7 16.5 16.5 0 0 0-3.2-.6 13.4 13.4 0 0 0-2.1-.1 16.2 16.2 0 0 0-2.2.1 14.7 14.7 0 0 0-2.9.5 12 12 0 0 0-1.8.5 14.7 14.7 0 0 0-2.2 1 8.8 8.8 0 0 1-1 .6l-.2.1-.6.4-.9.7-.5.5-.8.8a14.6 14.6 0 0 0-1.7 2.4l-.9 1.9a8.6 8.6 0 0 0-.6 2.3 7.8 7.8 0 0 0-.2 1.6v1.5a15.5 15.5 0 0 0 .4 3.1l.4 1.5.6 1.5.6 1.4a9.1 9.1 0 0 0 .7 1.4l1.3 2.4a7.5 7.5 0 0 0 .7 1.2l1 1.4z" fill="url(#b)"/><path d="M12.1 36.4c.3.7.7 1.8-.8 2.3a5.2 5.2 0 0 0-2 1 8.2 8.2 0 0 0-1.8 1.6 3.5 3.5 0 0 0 .9.7 27 27 0 0 0 6.2 2.9 16.2 16.2 0 0 0 2.2 0 8.8 8.8 0 0 0 1.6-.2l2.6-.3a13.4 13.4 0 0 1 2-.1 12.1 12.1 0 0 1 1.9.1l3.1.3a12.8 12.8 0 0 0 1.9.1 8 8 0 0 0 1.6-.1c.3 0 3.9-2 5.8-3a2.2 2.2 0 0 0 .5-.3l.5-.3-1.8-1.6c-1.4-1-1.9-.7-2.6-1.1-.8-.5-.3-1.7-.1-2l.2-.4.2-.4a.3.3 0 0 1 .1-.2v-.1l.2-.4 2-3.7a41.7 41.7 0 0 0-7.8-3.2s-6.3-5.4-11.5 0c-4.1.9-7.1 2.4-8 3.5l1.9 3.5.5.7.5.7z" fill="url(#c)"/><path class="l" d="M11.9 40.7c-2.2-.2-3.3 1.1-4.7 2a4.7 4.7 0 0 1-5.3-.2C.5 41.4.3 41.6.2 41.9c-.3.4 0 2.7 2.4 4.2A5.3 5.3 0 0 0 8 46c.5-.2 1.5-.5 1.8-.3l2.1-5"/><path d="M5.5 46.8a4.8 4.8 0 0 0 1.9-.5A1.6 1.6 0 0 0 8 46c.5-.2 1.5-.5 1.8-.3l.8-1.9.4-1 .3-.6.3-.8.3-.6a2 2 0 0 0-1.9.7 3.5 3.5 0 0 0-.7 1.2l-.3.6a1.9 1.9 0 0 1-.2.7 4.9 4.9 0 0 1-.3.7 6 6 0 0 1-.7 1 5.5 5.5 0 0 1-2.3 1.1z" fill="#058bd5"/><path class="l" d="M33.7 40.7c2.2-.2 3.1 1 4.4 1.9a5 5 0 0 0 5.4 0c1.4-1.1 1.7-1 1.8-.8.3.4-.1 2.6-2.4 4.2-2.2 1.5-4.9.2-5.3 0a4.2 4.2 0 0 0-1.8-.4l-2.1-4.9"/><path d="M34.8 46a2.6 2.6 0 0 1 2.7 0 1.5 1.5 0 0 0 .7.3 8.3 8.3 0 0 0 2 .5 6.7 6.7 0 0 1-1.7-.7 5.3 5.3 0 0 1-1.2-1.4 15.2 15.2 0 0 1-.9-1.7 14.8 14.8 0 0 0-.8-1.3c-.5-.7-.7-1.2-1.4-.9a4.8 4.8 0 0 0 0 1.2l.2 1 .3 1.6a3.4 3.4 0 0 0 .1 1.4z" fill="#0389d4"/><ellipse cx="22.6" cy="22.4" rx="15.9" ry="14.5" fill="url(#d)"/><path d="M32 35.8a7.6 7.6 0 0 1-1.3 4.3 10.4 10.4 0 0 1-8.4 4.7c-3.6 0-5.7-1.1-6.9-3.4-.5-1-.3-1.7-.6-4.2a7.7 7.7 0 0 1 7.8-8.7c5.9 0 9.4 3.7 9.4 7.3z" fill="url(#e)"/><ellipse cx="16.3" cy="23.9" rx="5.7" ry="6.9" fill="url(#f)"/><ellipse cx="16.5" cy="24.2" rx="5.3" ry="6.5" fill="url(#g)"/><ellipse class="s" cx="17.1" cy="24.8" rx="3.5" ry="3.8"/><circle class="t" cx="17.2" cy="24.8" r="2"/><circle class="u" cx="18.7" cy="23.6" r=".8"/><circle class="v" cx="15.4" cy="26.8" r=".4"/><path class="w" d="M19.7 16s.8.2.5-.4a5.2 5.2 0 0 0-3-2 7.3 7.3 0 0 0-3.5-.2c-.6.2-1.6 1.6-1.1 1.6a11.2 11.2 0 0 1 3.2-.3 9.5 9.5 0 0 1 3.9 1.3z"/><ellipse cx="29.3" cy="23.9" rx="5.7" ry="6.9" fill="url(#h)"/><ellipse cx="29.1" cy="24.2" rx="5.3" ry="6.5" fill="url(#i)"/><ellipse class="s" cx="28.5" cy="24.8" rx="3.6" ry="3.8"/><circle class="t" cx="28.5" cy="24.8" r="2"/><circle class="u" cx="30.1" cy="23.6" r=".8"/><circle class="v" cx="26.7" cy="26.8" r=".4"/><path class="w" d="M25.9 16s-.8.2-.5-.4a4.8 4.8 0 0 1 3-2 7.3 7.3 0 0 1 3.5-.2c.6.2 1.7 1.6 1.1 1.6a11.2 11.2 0 0 0-3.2-.3 9 9 0 0 0-3.9 1.3z"/><path d="M14.9 33.3a11.6 11.6 0 0 0 7.8 3.5 11.3 11.3 0 0 0 8.1-3.5s-4.7 2.8-8.1 2.8-7.8-2.8-7.8-2.8z" fill="#33aeeb"/><path d="M14.9 32.3c0-.2.2-.5-.1-.4a2.4 2.4 0 0 0-.9.8c-.2.4-.4 1.3.3.8.5-.4 1 .1 1.3.3a12.1 12.1 0 0 0 7.3 2.6 12.8 12.8 0 0 0 7.5-2.7c.5-.3.7-.4 1-.2.5.3.8.2.5-.6a2 2 0 0 0-.8-1c-.3-.2-.5-.1-.4.1a.6.6 0 0 1-.1.8 12 12 0 0 1-7.7 2.5 12 12 0 0 1-7.6-2.5c-.3-.1-.4-.3-.3-.5z" fill="#005a98"/><path d="M18.7 46.5a11.5 11.5 0 0 0 1.5-.5 2.2 2.2 0 0 0 .5-.3 3.6 3.6 0 0 1 3.3-.4l2 .9a.8.8 0 0 0 .4.1l2.6-1.7 1.7-1.1a5 5 0 0 0 .4-2.3l-.1-2c-.1-.4-.1-.8-.4-1-.4-.5-1-.6-2-.1a2.7 2.7 0 0 0-1.2.9c-.6.6-1 1.5-1.9 2.7a3 3 0 0 1-3 1.6 3.5 3.5 0 0 1-.6-.1c-.8-.2-1.7-.2-.3-1.9s-.1-2.1-1.3-2.1a5.7 5.7 0 0 0-1.2.1 7.5 7.5 0 0 0-3.1 1 4 4 0 0 0-1.4 1.5 3.5 3.5 0 0 0 .5 3.1 4.7 4.7 0 0 0 3.6 1.6z" fill="#0471be"/><path class="ac" d="M27.1 47.5a3.6 3.6 0 0 0 1.2.8 5.1 5.1 0 0 0 3 .2l.9-.3.5-.2.5-.3.6-.4.3-.2a6.4 6.4 0 0 0 1-1.3 5.8 5.8 0 0 0 .7-2.1 4 4 0 0 0-.3-2 2.7 2.7 0 0 0-.9-1.2h-.8l-1.8-.1h-.9v.9a2.3 2.3 0 0 1-.5 1.7H30c-1.1-.3.1-3.7.2-3.9s.5-1.4-.9-.9a5.1 5.1 0 0 0-1.8 1.3 8.2 8.2 0 0 0-1.2 2 5.3 5.3 0 0 0-.3 1.2 6.6 6.6 0 0 0-.1 1.4 4.2 4.2 0 0 0 1.2 3.4z"/><path class="ad" d="M27.6 39.4a7.3 7.3 0 0 0-1.6 3.3c-.4 2.4.2 4.8 2.4 5.8a5.3 5.3 0 0 0 5.1-.7 9.3 9.3 0 0 0 1.6-1.8c1.4-2.3.5-4.6-.3-5.2a3.9 3.9 0 0 1-.9 4.9 4.7 4.7 0 0 1-6.4-.3 5.3 5.3 0 0 1 .1-6z"/><path class="ac" d="M11.1 47.6l.4.4a4.7 4.7 0 0 0 1 .5 4 4 0 0 0 1.5.3h.3a5.7 5.7 0 0 0 1.3-.1 5.1 5.1 0 0 0 2.9-2.1 5.4 5.4 0 0 0 .5-1.1 14.3 14.3 0 0 1 .5-2 4.2 4.2 0 0 1 .6-1.4 15.4 15.4 0 0 1 1.2-1.3c.3-.4.5-.7.1-1.2-.8-.8-2.7 0-3.5.8L16.6 42a1.2 1.2 0 0 1-1.1.4c-.3-.1-.5-.2-.6-.5-.1-.1 0-.3 0-.4a.8.8 0 0 1 .2-.4l-1.3-.2a3.9 3.9 0 0 0-1.5-.2h-1a3 3 0 0 0-.5.7 6.2 6.2 0 0 0-.7 3.3 3.6 3.6 0 0 0 .2 1.1 2.5 2.5 0 0 0 .8 1.8z"/><path class="ad" d="M11.3 40.7a5.7 5.7 0 0 0-1.5 5c.7 2.7 3.3 3.2 5.1 3.1a4.9 4.9 0 0 0 4.3-3.2 16 16 0 0 1 1-3.4c.4-.8 1.8-1.5 1.4-2.2 0 0 .3.4-.8 1.1-1.7 1.1-1.5 2.8-3.2 4.3-2.2 1.8-5.5 1.5-6.6.2-2-2.3.3-4.9.3-4.9z"/><path class="ae" d="M34.1 40.8h6.2v6.1h-6.2zM9.7 39.6h12.4V49H9.7z"/><path class="ae" d="M26.1 38.2h9.8v10.9h-9.8z"/></svg>